# xmcd
# 
# Track frame offsets:
#     150
#     13030
#     26455
#     38837
#     47835
#     61257
#     72342
#     84255
#     95867
#     107560
#     120110
#     130602
# 
# Disc length: 1909
# 
# Revision: 3
# Processed by: cddbd v1.5.2PL0 Copyright (c) Steve Scherf et al.
# Submitted via: fre:ac v1.0.31
# 
DISCID=9007730c
DTITLE=Columbia Blues - Sonny Boy Williamson The Real Folk Blues
DYEAR=1965
DGENRE=Blues
TTITLE0=One Way Out
TTITLE1=Too Young to Die
TTITLE2=Trust Me Baby
TTITLE3=Checkin' Up on My Baby
TTITLE4=Sad to Be Alone
TTITLE5=Got to Move
TTITLE6=Bring It On Home
TTITLE7=Down Child
TTITLE8=Peach Tree
TTITLE9=Dissatisfied
TTITLE10=That's All I Want
TTITLE11=Too Old to Think
EXTD=YEAR: 1965
EXTT0=
EXTT1=
EXTT2=
EXTT3=
EXTT4=
EXTT5=
EXTT6=
EXTT7=
EXTT8=
EXTT9=
EXTT10=
EXTT11=
PLAYORDER=
